<?xml version="1.0" encoding="utf-8"?>
<!-- Generator: Adobe Illustrator 26.0.3, SVG Export Plug-In . SVG Version: 6.00 Build 0)  -->
<svg version="1.1" id="Blue_RndSquare_BG" xmlns="http://www.w3.org/2000/svg" xmlns:xlink="http://www.w3.org/1999/xlink" x="0px"
	 y="0px" viewBox="0 0 512 512" style="enable-background:new 0 0 512 512;" xml:space="preserve">
<style type="text/css">
	.st0{display:none;fill:#2C4B9B;}
	.st1{fill:#2C4B9B;}
	.st2{fill:#9AB432;}
	.st3{fill:#FFFFFF;}
	.st4{font-family:'ArialMT';}
	.st5{font-size:126.66px;}
	.st6{letter-spacing:-8;}
</style>
<path class="st0" d="M115.9,0h280.7c63.9,0,115.6,51.8,115.6,115.7v280.7c0,63.9-51.8,115.6-115.6,115.6H115.9
	C52,512,0.2,460.2,0.2,396.4V115.7C0.2,51.8,52,0,115.9,0z"/>
<rect x="0.2" class="st1" width="511.8" height="511.8"/>
<circle id="SAFE_AREA" class="st0" cx="256.2" cy="256" r="256"/>
<path class="st2" d="M381,71.1v348.6c0,27-75,43.3-165.7,43.3S51,446.3,51,425.8V81.9c10.6,24.8,79.8,43.9,163.6,43.9
	c91.1,0,165-22.6,165-50.5c0-1.4-0.2-2.9-0.6-4.2H381z"/>
<path class="st3" d="M381,75.7c0,27.9-73.9,50.5-165,50.5c-83.8,0-152.9-19.1-163.6-43.9C51.5,80.3,51,78,51,75.7
	c0-27.9,73.9-50.5,165-50.5c86.5,0,157.4,20.4,164.4,46.3C380.8,72.9,381,74.3,381,75.7z"/>
<path class="st2" d="M505.2,221.2v45.4c0,52.4-34,95.3-75.6,95.3h-18.9c-10.3,0-20.5-2.7-29.8-7.8v-28.3c6.9,3.8,14.5,5.8,22.1,5.8
	h14c30.9,0,56.2-31.9,56.2-70.9V227c0-39-25.3-70.9-56.2-70.9h-14c-7.7,0-15.3,2-22.2,5.8v-28.3c9.3-5.1,19.5-7.8,29.8-7.8h18.9
	C471.2,125.8,505.2,168.7,505.2,221.2z"/>
<text transform="matrix(1 0 0 1 112.79 268.4)" class="st1 st4 st5 st6">T</text>
<text transform="matrix(1 0 0 1 166.75 268.4)" class="st1 st4 st5">ea</text>
<path class="st1" d="M58.5,282.2c4.9,0.8,9.8,1.9,14.6,3.3c8,2.3,13.1,5.1,16.4,9.1c2.7,3.3,3.9,7.5,3.4,11.7
	c-0.9,7.3-6.5,10.9-13.2,11.2v0.2c4.5,2.7,6.8,7.4,7.5,13.5c1,8.2,1.9,13.9,2.9,16.4c-2.8-0.7-5.6-1.4-8.3-2.1
	c-0.8-1.8-1.6-6.9-2.4-14.3c-0.8-8.1-3.7-11.8-10.7-14.1c-2.5-0.7-4.9-1.5-7.3-2.2l-3.7,23.8c-2.7-0.8-5.3-1.6-7.9-2.5L58.5,282.2z
	 M62.2,309.5c2.6,0.8,5.3,1.6,7.9,2.4c8.3,2.4,14.1-0.5,14.9-6.8c0.9-7.1-4.2-11.6-12.2-14c-2.5-0.8-5-1.3-7.6-1.6
	C64.2,296.2,63.2,302.9,62.2,309.5L62.2,309.5z"/>
<path class="st1" d="M138.6,337.6c-1,14.9-13.1,19.7-24.1,17.7c-12.3-2.2-20.7-12.3-19.2-24.9c1.6-13.3,11.9-18.9,23.8-16.8
	C131.6,315.9,139.4,325.3,138.6,337.6z M103.4,331.9c-1,8.7,4,16.5,12,18c7.8,1.4,14.2-4.2,14.9-13.2c0.5-6.8-2.5-15.9-11.9-17.6
	S104.2,324.3,103.4,331.9z"/>
<path class="st1" d="M184,351.5c-0.1,4.2-0.1,7.8,0.1,11c-2.5-0.1-4.9-0.2-7.4-0.4c-0.1-2.2-0.2-4.4-0.3-6.6h-0.2
	c-2.2,3.1-7.2,7.1-15.3,6.4c-7.2-0.6-15.5-5.1-14.6-19.2c0.5-7.8,0.9-15.7,1.4-23.5c2.6,0.3,5.3,0.6,7.9,0.9
	c-0.4,7.4-0.8,14.8-1.2,22.3c-0.4,7.6,1.9,13.1,9.4,13.7c4.5,0.5,8.9-1.8,11.1-5.9c0.5-1.2,0.8-2.4,0.9-3.7l0.8-24.7
	c2.7,0.2,5.3,0.3,8,0.4C184.5,332,184.2,341.7,184,351.5z"/>
<path class="st1" d="M196.8,333.5c0-4.2,0-7.6-0.2-10.9c2.4,0,4.7,0.1,7.1,0.1c0.1,2.2,0.3,4.4,0.4,6.7h0.2
	c2.2-3.8,7.3-7.5,14.5-7.7c6.1-0.1,15.6,2.8,16,16.5l0.7,24c-2.8,0.1-5.5,0.3-8.3,0.4c-0.2-7.7-0.3-15.5-0.5-23.2
	c-0.1-6.5-2.9-11.8-10.4-11.6c-4.8,0-9.1,3.1-10.8,7.6c-0.4,1.1-0.6,2.2-0.6,3.4c0,8.1,0,16.2,0,24.2c-2.8,0-5.5,0-8.3-0.1
	L196.8,333.5z"/>
<path class="st1" d="M283.5,298l3.8,48.4c0.3,3.6,0.7,7.6,1.2,10.3c-2.5,0.4-4.9,0.8-7.4,1.1l-0.9-6.9h-0.2c-2.2,4.8-7.5,9-14.9,9.8
	c-11.1,1.2-19.9-6.4-20.3-18.7c-0.6-13.4,8.2-22.2,18.8-23.5c6.7-0.8,11.4,1.5,13.6,4.5h0.2c-0.6-8-1.1-16-1.7-24
	C278.4,298.7,280.9,298.4,283.5,298z M278.2,334.2c-0.1-1-0.2-2-0.6-3c-1.5-4.5-6.1-7.7-12.1-7c-8.2,1-12.9,8-12.5,16.9
	c0.4,8.1,5.2,14.5,14.1,13.5c5.6-0.6,10.3-4.7,11.4-10.2c0.2-1.1,0.2-2.1,0.1-3.2C278.6,338.8,278.4,336.5,278.2,334.2L278.2,334.2z
	"/>
<path class="st1" d="M305.6,334.9c1.1,9.8,8.6,12.5,16.7,10.7c4.3-0.9,8.4-2.6,12.1-5c0.7,1.6,1.4,3.2,2,4.8c-4.4,2.9-9.4,5-14.6,6
	c-13.9,3-22.9-3.7-24-15.8s5.8-22.9,18.4-25.6c14-3.1,19.2,7.1,20.2,14.5c0.1,1.1,0.2,2.3,0.2,3.4
	C326.3,330.6,316,332.9,305.6,334.9z M328.5,324.7c-0.5-4.6-3.5-11.2-12.3-9.2c-8,1.7-10.8,9.1-11,14.3
	C313,328.2,320.7,326.5,328.5,324.7z"/>
<path class="st1" d="M344.4,316.5c-0.6-4.7-1.3-8.6-2.1-12.2c2.3-0.6,4.5-1.3,6.8-1.9c0.5,2.6,0.9,5.1,1.4,7.7l0.4-0.1
	c1-5.7,5-10.3,10.5-12.2c0.7-0.2,1.5-0.4,2.2-0.5c0.4,2.2,0.7,4.5,1.1,6.7c-0.9,0.1-1.8,0.3-2.7,0.6c-5.5,1.7-8.8,6.7-9,12.4
	c-0.1,1.2,0,2.3,0.1,3.5c1,7,2.1,14,3.1,21c-2.7,0.8-5.3,1.5-8,2.3C347,334.7,345.7,325.6,344.4,316.5z"/>
</svg>
